<svg xmlns="http://www.w3.org/2000/svg" viewBox="0 0 760 440" width="760" height="440" role="img" aria-label="Monthly npm downloads for a basket of ten ubiquitous packages, July 2024 to June 2026, rising from about 2.6 billion to 5.9 billion with the steepest climb in 2026.">
<defs>
<linearGradient id="fill" x1="0" y1="0" x2="0" y2="1">
<stop offset="0%" stop-color="#2563eb" stop-opacity="0.20"/>
<stop offset="100%" stop-color="#2563eb" stop-opacity="0.02"/>
</linearGradient>
</defs>
<rect x="0.5" y="0.5" width="759" height="439" rx="14" fill="#ffffff" stroke="#e2e8f0"/>
<text x="56" y="30" font-size="16" font-weight="700" fill="#0f172a" font-family="system-ui,-apple-system,Segoe UI,Roboto,sans-serif">Open-source library installs are exploding</text>
<text x="56" y="49" font-size="11.5" fill="#64748b" font-family="system-ui,-apple-system,Segoe UI,Roboto,sans-serif">Combined monthly npm downloads &#183; basket of 10 ubiquitous packages</text>
<line x1="66" y1="376.0" x2="734" y2="376.0" stroke="#e8ebf0" stroke-width="1"/><text x="56" y="380.0" text-anchor="end" font-size="11" fill="#94a3b8" font-family="system-ui,-apple-system,Segoe UI,Roboto,sans-serif">0B</text><line x1="66" y1="328.9" x2="734" y2="328.9" stroke="#e8ebf0" stroke-width="1"/><text x="56" y="332.9" text-anchor="end" font-size="11" fill="#94a3b8" font-family="system-ui,-apple-system,Segoe UI,Roboto,sans-serif">1B</text><line x1="66" y1="281.8" x2="734" y2="281.8" stroke="#e8ebf0" stroke-width="1"/><text x="56" y="285.8" text-anchor="end" font-size="11" fill="#94a3b8" font-family="system-ui,-apple-system,Segoe UI,Roboto,sans-serif">2B</text><line x1="66" y1="234.8" x2="734" y2="234.8" stroke="#e8ebf0" stroke-width="1"/><text x="56" y="238.8" text-anchor="end" font-size="11" fill="#94a3b8" font-family="system-ui,-apple-system,Segoe UI,Roboto,sans-serif">3B</text><line x1="66" y1="187.7" x2="734" y2="187.7" stroke="#e8ebf0" stroke-width="1"/><text x="56" y="191.7" text-anchor="end" font-size="11" fill="#94a3b8" font-family="system-ui,-apple-system,Segoe UI,Roboto,sans-serif">4B</text><line x1="66" y1="140.6" x2="734" y2="140.6" stroke="#e8ebf0" stroke-width="1"/><text x="56" y="144.6" text-anchor="end" font-size="11" fill="#94a3b8" font-family="system-ui,-apple-system,Segoe UI,Roboto,sans-serif">5B</text><line x1="66" y1="93.5" x2="734" y2="93.5" stroke="#e8ebf0" stroke-width="1"/><text x="56" y="97.5" text-anchor="end" font-size="11" fill="#94a3b8" font-family="system-ui,-apple-system,Segoe UI,Roboto,sans-serif">6B</text>
<path d="M66.0,253.4 L95.0,258.1 L124.1,255.2 L153.1,243.6 L182.2,248.8 L211.2,271.9 L240.3,258.6 L269.3,256.6 L298.3,246.2 L327.4,240.2 L356.4,234.7 L385.5,210.4 L414.5,212.5 L443.6,230.2 L472.6,222.4 L501.7,212.9 L530.7,217.7 L559.7,219.7 L588.8,197.2 L617.8,181.9 L646.9,123.4 L675.9,124.8 L705.0,109.5 L734.0,97.7 L734.0,376.0 L66.0,376.0 Z" fill="url(#fill)"/>
<path d="M66.0,253.4 L95.0,258.1 L124.1,255.2 L153.1,243.6 L182.2,248.8 L211.2,271.9 L240.3,258.6 L269.3,256.6 L298.3,246.2 L327.4,240.2 L356.4,234.7 L385.5,210.4 L414.5,212.5 L443.6,230.2 L472.6,222.4 L501.7,212.9 L530.7,217.7 L559.7,219.7 L588.8,197.2 L617.8,181.9 L646.9,123.4 L675.9,124.8 L705.0,109.5 L734.0,97.7" fill="none" stroke="#2563eb" stroke-width="2.5" stroke-linejoin="round" stroke-linecap="round"/>
<circle cx="66.0" cy="253.4" r="2.2" fill="#2563eb"/><circle cx="95.0" cy="258.1" r="2.2" fill="#2563eb"/><circle cx="124.1" cy="255.2" r="2.2" fill="#2563eb"/><circle cx="153.1" cy="243.6" r="2.2" fill="#2563eb"/><circle cx="182.2" cy="248.8" r="2.2" fill="#2563eb"/><circle cx="211.2" cy="271.9" r="2.2" fill="#2563eb"/><circle cx="240.3" cy="258.6" r="2.2" fill="#2563eb"/><circle cx="269.3" cy="256.6" r="2.2" fill="#2563eb"/><circle cx="298.3" cy="246.2" r="2.2" fill="#2563eb"/><circle cx="327.4" cy="240.2" r="2.2" fill="#2563eb"/><circle cx="356.4" cy="234.7" r="2.2" fill="#2563eb"/><circle cx="385.5" cy="210.4" r="2.2" fill="#2563eb"/><circle cx="414.5" cy="212.5" r="2.2" fill="#2563eb"/><circle cx="443.6" cy="230.2" r="2.2" fill="#2563eb"/><circle cx="472.6" cy="222.4" r="2.2" fill="#2563eb"/><circle cx="501.7" cy="212.9" r="2.2" fill="#2563eb"/><circle cx="530.7" cy="217.7" r="2.2" fill="#2563eb"/><circle cx="559.7" cy="219.7" r="2.2" fill="#2563eb"/><circle cx="588.8" cy="197.2" r="2.2" fill="#2563eb"/><circle cx="617.8" cy="181.9" r="2.2" fill="#2563eb"/><circle cx="646.9" cy="123.4" r="2.2" fill="#2563eb"/><circle cx="675.9" cy="124.8" r="2.2" fill="#2563eb"/><circle cx="705.0" cy="109.5" r="2.2" fill="#2563eb"/><circle cx="734.0" cy="97.7" r="2.2" fill="#2563eb"/><circle cx="734.0" cy="97.7" r="5" fill="#2563eb" stroke="#ffffff" stroke-width="2"/>

<line x1="385.5" y1="210.4" x2="385.5" y2="84" stroke="#cbd5e1" stroke-width="1" stroke-dasharray="3,3"/>
<line x1="734.0" y1="97.7" x2="734.0" y2="84" stroke="#cbd5e1" stroke-width="1" stroke-dasharray="3,3"/>
<line x1="385.5" y1="84" x2="734.0" y2="84" stroke="#94a3b8" stroke-width="1"/>
<text x="559.7" y="79" text-anchor="middle" font-size="12" font-weight="600" fill="#1e293b" font-family="system-ui,-apple-system,Segoe UI,Roboto,sans-serif">+69% year over year</text>

<text x="56" y="426" font-size="10" fill="#94a3b8" font-family="system-ui,-apple-system,Segoe UI,Roboto,sans-serif">Source: npm registry download counts (api.npmjs.org). Packages: react, typescript, express, axios, eslint, next, vue, webpack, dotenv, chalk.</text>
<text x="66.0" y="398" text-anchor="middle" font-size="10.5" fill="#94a3b8" font-family="system-ui,-apple-system,Segoe UI,Roboto,sans-serif">Jul '24</text><text x="153.1" y="398" text-anchor="middle" font-size="10.5" fill="#94a3b8" font-family="system-ui,-apple-system,Segoe UI,Roboto,sans-serif">Oct '24</text><text x="240.3" y="398" text-anchor="middle" font-size="10.5" fill="#94a3b8" font-family="system-ui,-apple-system,Segoe UI,Roboto,sans-serif">Jan '25</text><text x="327.4" y="398" text-anchor="middle" font-size="10.5" fill="#94a3b8" font-family="system-ui,-apple-system,Segoe UI,Roboto,sans-serif">Apr '25</text><text x="414.5" y="398" text-anchor="middle" font-size="10.5" fill="#94a3b8" font-family="system-ui,-apple-system,Segoe UI,Roboto,sans-serif">Jul '25</text><text x="501.7" y="398" text-anchor="middle" font-size="10.5" fill="#94a3b8" font-family="system-ui,-apple-system,Segoe UI,Roboto,sans-serif">Oct '25</text><text x="588.8" y="398" text-anchor="middle" font-size="10.5" fill="#94a3b8" font-family="system-ui,-apple-system,Segoe UI,Roboto,sans-serif">Jan '26</text><text x="675.9" y="398" text-anchor="middle" font-size="10.5" fill="#94a3b8" font-family="system-ui,-apple-system,Segoe UI,Roboto,sans-serif">Apr '26</text><text x="734.0" y="398" text-anchor="middle" font-size="10.5" fill="#94a3b8" font-family="system-ui,-apple-system,Segoe UI,Roboto,sans-serif">Jun '26</text>
</svg>